<svg xmlns="http://www.w3.org/2000/svg" viewBox="0 0 500 420" width="500" height="420">
<rect width="100%" height="100%" fill="white"/>
<text x="250.0" y="25" text-anchor="middle" font-family="Arial, sans-serif" font-size="16" fill="black">CMOS Inverter</text>
<line x1="80" y1="60" x2="420" y2="60" stroke="black" stroke-width="3"/>
<text x="430" y="55" text-anchor="start" font-family="Arial, sans-serif" font-size="14" fill="black">VDD</text>
<line x1="80" y1="360" x2="420" y2="360" stroke="black" stroke-width="3"/>
<line x1="72" y1="364" x2="88" y2="364" stroke="black" stroke-width="2"/>
<line x1="75" y1="368" x2="85" y2="368" stroke="black" stroke-width="2"/>
<line x1="77" y1="372" x2="83" y2="372" stroke="black" stroke-width="2"/>
<text x="430" y="378" text-anchor="start" font-family="Arial, sans-serif" font-size="14" fill="black">GND</text>
<line x1="262" y1="109" x2="298" y2="109" stroke="black" stroke-width="2"/>
<line x1="262" y1="141" x2="298" y2="141" stroke="black" stroke-width="2"/>
<line x1="282" y1="112" x2="282" y2="138" stroke="black" stroke-width="2"/>
<line x1="270" y1="115" x2="270" y2="135" stroke="black" stroke-width="2"/>
<line x1="266" y1="115" x2="274" y2="115" stroke="black" stroke-width="2"/>
<line x1="266" y1="135" x2="274" y2="135" stroke="black" stroke-width="2"/>
<circle cx="270" cy="125" r="5" fill="white" stroke="black" stroke-width="2"/>
<text x="330" y="159" text-anchor="start" font-family="Arial, sans-serif" font-size="12" fill="black">M2</text>
<line x1="262" y1="259" x2="298" y2="259" stroke="black" stroke-width="2"/>
<line x1="262" y1="291" x2="298" y2="291" stroke="black" stroke-width="2"/>
<line x1="282" y1="262" x2="282" y2="288" stroke="black" stroke-width="2"/>
<line x1="270" y1="265" x2="270" y2="285" stroke="black" stroke-width="2"/>
<line x1="266" y1="265" x2="274" y2="265" stroke="black" stroke-width="2"/>
<line x1="266" y1="285" x2="274" y2="285" stroke="black" stroke-width="2"/>
<text x="330" y="309" text-anchor="start" font-family="Arial, sans-serif" font-size="12" fill="black">M1</text>
<path d="M 280 60 L 280 109" fill="none" stroke="black" stroke-width="2" stroke-linejoin="round"/>
<circle cx="280" cy="60" r="3" fill="black" stroke="none" stroke-width="2"/>
<path d="M 280 291 L 280 360" fill="none" stroke="black" stroke-width="2" stroke-linejoin="round"/>
<circle cx="280" cy="360" r="3" fill="black" stroke="none" stroke-width="2"/>
<path d="M 195 125 L 195 275" fill="none" stroke="black" stroke-width="2" stroke-linejoin="round"/>
<path d="M 270 125 L 195 125" fill="none" stroke="black" stroke-width="2" stroke-linejoin="round"/>
<circle cx="195" cy="125" r="3" fill="black" stroke="none" stroke-width="2"/>
<path d="M 270 275 L 195 275" fill="none" stroke="black" stroke-width="2" stroke-linejoin="round"/>
<circle cx="195" cy="275" r="3" fill="black" stroke="none" stroke-width="2"/>
<path d="M 60 170 L 195 170" fill="none" stroke="black" stroke-width="2" stroke-linejoin="round"/>
<circle cx="195" cy="170" r="3" fill="black" stroke="none" stroke-width="2"/>
<text x="45" y="170" text-anchor="end" font-family="Arial, sans-serif" font-size="14" fill="black">IN</text>
<path d="M 280 141 L 280 259" fill="none" stroke="black" stroke-width="2" stroke-linejoin="round"/>
<path d="M 280 210 L 440 210" fill="none" stroke="black" stroke-width="2" stroke-linejoin="round"/>
<circle cx="280" cy="210" r="3" fill="black" stroke="none" stroke-width="2"/>
<text x="450" y="210" text-anchor="start" font-family="Arial, sans-serif" font-size="14" fill="black">OUT</text>
</svg>